name D:\school\WTK\thesis\model\3dpredictsim\Results\batch_windlass\Pog_s1_tmt_bCst_d05_k800_WL20_ig24_act_TTC.mot
datacolumns 128
datarows 4
range 1.86349152 1.90076135
endheader
time	pelvis_tilt	pelvis_list	pelvis_rotation	pelvis_tx	pelvis_ty	pelvis_tz	hip_flexion_l	hip_adduction_l	hip_rotation_l	hip_flexion_r	hip_adduction_r	hip_rotation_r	knee_angle_l	knee_angle_r	ankle_angle_l	ankle_angle_r	subtalar_angle_l	subtalar_angle_r	tmt_angle_l	tmt_angle_r	mtp_angle_l	mtp_angle_r	lumbar_extension	lumbar_bending	lumbar_rotation	arm_flex_l	arm_add_l	arm_rot_l	arm_flex_r	arm_add_r	arm_rot_r	elbow_flex_l	elbow_flex_r	pro_sup_l	pro_sup_r	glut_med1_l/activation	glut_med2_l/activation	glut_med3_l/activation	glut_min1_l/activation	glut_min2_l/activation	glut_min3_l/activation	semimem_l/activation	semiten_l/activation	bifemlh_l/activation	bifemsh_l/activation	sar_l/activation	add_long_l/activation	add_brev_l/activation	add_mag1_l/activation	add_mag2_l/activation	add_mag3_l/activation	tfl_l/activation	pect_l/activation	grac_l/activation	glut_max1_l/activation	glut_max2_l/activation	glut_max3_l/activation	iliacus_l/activation	psoas_l/activation	quad_fem_l/activation	gem_l/activation	peri_l/activation	rect_fem_l/activation	vas_med_l/activation	vas_int_l/activation	vas_lat_l/activation	med_gas_l/activation	lat_gas_l/activation	soleus_l/activation	tib_post_l/activation	flex_dig_l/activation	flex_hal_l/activation	tib_ant_l/activation	per_brev_l/activation	per_long_l/activation	per_tert_l/activation	ext_dig_l/activation	ext_hal_l/activation	ercspn_l/activation	intobl_l/activation	extobl_l/activation	glut_med1_r/activation	glut_med2_r/activation	glut_med3_r/activation	glut_min1_r/activation	glut_min2_r/activation	glut_min3_r/activation	semimem_r/activation	semiten_r/activation	bifemlh_r/activation	bifemsh_r/activation	sar_r/activation	add_long_r/activation	add_brev_r/activation	add_mag1_r/activation	add_mag2_r/activation	add_mag3_r/activation	tfl_r/activation	pect_r/activation	grac_r/activation	glut_max1_r/activation	glut_max2_r/activation	glut_max3_r/activation	iliacus_r/activation	psoas_r/activation	quad_fem_r/activation	gem_r/activation	peri_r/activation	rect_fem_r/activation	vas_med_r/activation	vas_int_r/activation	vas_lat_r/activation	med_gas_r/activation	lat_gas_r/activation	soleus_r/activation	tib_post_r/activation	flex_dig_r/activation	flex_hal_r/activation	tib_ant_r/activation	per_brev_r/activation	per_long_r/activation	per_tert_r/activation	ext_dig_r/activation	ext_hal_r/activation	ercspn_r/activation	intobl_r/activation	extobl_r/activation	
          1.86349152	         -2.92853362	          0.74998467	        -10.13321700	          2.32936440	          0.85312712	          0.00411838	         34.33628593	         -2.02154231	         -4.81155749	        -16.93132546	         -3.36982707	          6.70572933	        -20.41520949	        -15.47428599	          0.80013284	         -7.73701348	          6.61944015	         17.60444149	         -0.10259756	         -6.75261982	          0.53039811	         34.86961409	          0.26308952	          2.43417738	          3.11054891	        -13.52063759	        -13.67306143	          9.80957196	          2.07521931	        -13.51296723	         14.85985174	         20.00040541	         46.49397721	         86.51662706	         86.51662706	          0.05000505	          0.05001951	          0.05671518	          0.05003053	          0.05003094	          0.05004974	          0.07285158	          0.06333065	          0.08932637	          0.07284244	          0.06049500	          0.07483933	          0.09161839	          0.07898680	          0.06081941	          0.05671126	          0.05000547	          0.05011300	          0.07032903	          0.05006171	          0.05001908	          0.06217444	          0.08761659	          0.09587837	          0.20753670	          0.07075637	          0.09011010	          0.06035157	          0.05241972	          0.06402960	          0.05349082	          0.09748802	          0.07285114	          0.07284904	          0.06189150	          0.07284508	          0.07284762	          0.45396665	          0.23545495	          0.17355149	          0.05014365	          0.52256280	          0.06007017	          0.05000055	          0.16680850	          0.13566358	          0.22199697	          0.09542115	          0.06035690	          0.31433359	          0.15472233	          0.10612250	          0.05001075	          0.05000131	          0.05000125	          0.06032621	          0.11699391	          0.05000063	          0.05000059	          0.05000074	          0.05000167	          0.05000126	          0.20749746	          0.05000330	          0.05000398	          0.05022786	          0.05004110	          0.05000401	          0.36735360	          0.40024953	          0.05000542	          0.05012308	          0.06035388	          0.18666387	          0.08823146	          0.09967713	          0.09452940	          0.16379472	          0.23573671	          0.05000024	          0.16706770	          0.18393981	          0.18809660	          0.05075690	          0.46390202	          0.37948946	          0.12310777	          0.29011132	          0.11873027	          0.05000016	          0.05000021	          0.05000125	
          1.87591480	         -2.92910404	          0.69192115	        -10.32435434	          2.34962657	          0.85201692	          0.00372646	         33.84324950	         -1.81765264	         -4.63566888	        -17.35427826	         -3.70506139	          6.43916440	        -20.12430357	        -16.19599656	          0.26421562	        -10.98961214	          6.23311867	         18.02902146	         -0.12982930	         -7.44246545	          0.69034610	         36.59601190	          0.50217245	          2.24087118	          3.23359475	        -15.11423160	        -13.65951127	          9.93433888	          1.67047131	        -13.57338623	         15.26753204	         20.04448382	         47.68124385	         86.51662706	         86.51662706	          0.05000351	          0.05000589	          0.08273550	          0.05002166	          0.05001301	          0.05000635	          0.06035516	          0.06035535	          0.07400400	          0.06035326	          0.05012083	          0.08792353	          0.07593527	          0.12483518	          0.09242349	          0.07669978	          0.07284039	          0.06032418	          0.06036746	          0.05012930	          0.05000303	          0.08664983	          0.07258760	          0.07943310	          0.17441070	          0.05863303	          0.08264187	          0.05000113	          0.13636895	          0.14056681	          0.12185099	          0.08076527	          0.06035458	          0.06035279	          0.05127499	          0.06035293	          0.06035305	          0.52684366	          0.28541795	          0.16270059	          0.05000417	          0.58601630	          0.05000093	          0.05000029	          0.13819471	          0.11239230	          0.18391770	          0.07905332	          0.05000380	          0.26041470	          0.12818229	          0.08791928	          0.05004497	          0.05000230	          0.05000186	          0.05000225	          0.09692606	          0.11428180	          0.12250895	          0.06035736	          0.05005279	          0.05003645	          0.17190424	          0.06396732	          0.05000675	          0.05003424	          0.05002428	          0.05002008	          0.30433904	          0.33159209	          0.05000112	          0.05000324	          0.05000202	          0.15464413	          0.07310042	          0.09066235	          0.09404815	          0.13569787	          0.19529918	          0.05000012	          0.13840945	          0.15238762	          0.15583125	          0.27873240	          0.50305450	          0.36302715	          0.52035669	          0.44542610	          0.09836507	          0.05000008	          0.05000092	          0.06327445	
          1.88833807	         -2.92106384	          0.63967084	        -10.47133577	          2.37015444	          0.85039465	          0.00331939	         33.26536727	         -1.56683732	         -4.40115062	        -17.61506013	         -4.01576493	          6.16077751	        -20.42306350	        -17.29983986	         -0.30166329	        -13.94598035	          5.79891803	         18.42484942	         -0.15293041	         -7.80796273	          0.88037554	         37.02196140	          0.75138669	          2.02102216	          3.34282266	        -16.67975150	        -13.65329610	         10.14603754	          1.19945642	        -13.66050163	         15.62545341	         20.01901889	         48.85485979	         86.51662706	         86.51662706	          0.12541152	          0.05001125	          0.15123990	          0.05000216	          0.05000288	          0.05415781	          0.05000218	          0.05000350	          0.06130977	          0.05000156	          0.05000578	          0.07284224	          0.06291028	          0.15462281	          0.17003168	          0.11456043	          0.06034653	          0.05000845	          0.05001374	          0.09615096	          0.06035427	          0.12712728	          0.06013647	          0.06580794	          0.25520948	          0.05000760	          0.08779808	          0.08247448	          0.30247482	          0.28682428	          0.24859971	          0.06691106	          0.05000157	          0.05000006	          0.05000011	          0.05000183	          0.05000082	          0.68523248	          0.23645863	          0.13479163	          0.48037033	          0.65902302	          0.33751876	          0.05000010	          0.11448922	          0.09311289	          0.15236982	          0.06549402	          0.06081050	          0.21574486	          0.10619486	          0.07283989	          0.05008722	          0.05017237	          0.06033889	          0.05733638	          0.08030074	          0.09468077	          0.27042090	          0.22734918	          0.11892145	          0.05007200	          0.14241652	          0.08116197	          0.06038018	          0.05001466	          0.05000831	          0.05000626	          0.25213372	          0.27471185	          0.05093897	          0.07283387	          0.06035509	          0.12811696	          0.06056185	          0.07511234	          0.09697450	          0.11242069	          0.16179822	          0.05000010	          0.11466718	          0.12624793	          0.12910065	          0.38389483	          0.43510218	          0.32635951	          0.71937103	          0.55775036	          0.29909359	          0.06421931	          0.06035369	          0.06564883	
          1.90076135	         -2.90588408	          0.60090728	        -10.57128584	          2.39074543	          0.84833906	          0.00291286	         32.52209338	         -1.27822967	         -4.09259129	        -17.68939376	         -4.30142768	          5.88549367	        -21.36958236	        -18.86391450	         -0.54571004	        -16.23010120	          5.31847256	         18.74242670	         -0.36983662	         -7.67104023	          1.02574327	         35.31618359	          0.99752511	          1.77009923	          3.43283810	        -18.17393971	        -13.66147800	         10.47444635	          0.69077724	        -13.76209403	         15.93026537	         19.89732902	         50.00677558	         86.51662706	         86.51662706	          0.22789990	          0.39448120	          0.53574426	          0.21801518	          0.07014556	          0.48263990	          0.05399803	          0.05000089	          0.06327504	          0.05000079	          0.05001227	          0.06035356	          0.06035612	          0.12809993	          0.14086573	          0.11293549	          0.05000197	          0.06035886	          0.06034964	          0.26497842	          0.05000161	          0.13950168	          0.06035255	          0.05464477	          0.21143243	          0.20734906	          0.37729322	          0.06832716	          0.33370558	          0.32338852	          0.28376351	          0.05862960	          0.05641729	          0.06035267	          0.13849558	          0.05000328	          0.05002176	          0.68924138	          0.19589730	          0.11166992	          0.39796952	          0.59071566	          0.32767017	          0.06084388	          0.09485011	          0.07714061	          0.36732779	          0.05426147	          0.05038022	          0.17873827	          0.08797912	          0.06034602	          0.05001251	          0.05000126	          0.05000209	          0.05000066	          0.06652701	          0.07844000	          0.30769380	          0.18835293	          0.09854467	          0.11724249	          0.11798703	          0.06725674	          0.05002751	          0.05908875	          0.06032889	          0.06035120	          0.20888357	          0.22758871	          0.06035225	          0.06034223	          0.05000222	          0.10614017	          0.08793123	          0.08793045	          0.08034144	          0.09313642	          0.13404397	          0.05000048	          0.09499759	          0.10459221	          0.10695537	          0.43742639	          0.43055498	          0.30647384	          0.64398101	          0.70336012	          0.24778830	          0.11119543	          0.05000091	          0.05438785	
